# xmcd CD database file
#
# Track frame offsets:
#	150
#	3690
#	13041
#	28893
#	51144
#	73475
#	89793
#	112654
#	125438
#	145402
#	157989
#	174385
#	189080
#	204485
#	223233
#	237913
#
# Disc length: 3431 seconds
#
# Revision: 2
# Processed by: cddbd v1.5.2PL0 Copyright (c) Steve Scherf et al.
# Submitted via: CDex 1.83
#
DISCID=e60d6510
DTITLE=Cash, Johnny - Forever Words
DYEAR=2018
DGENRE=Country
TTITLE0=Forever , I Still Miss Someone - Kris kristofferson And Willie Nelson
TTITLE1=To June This Morning - Ruston Kelly And Kacey Musgraves
TTITLE2=Gold All Over The Ground - Brad Paisley
TTITLE3=You Never Knew My Mind - Chris Cornell
TTITLE4=The Captain's Daughter - Alison Kraus And Union Station
TTITLE5=Jellico Coal Man - T Bone Burnett
TTITLE6=The Walking Wounded - Rosanne Cash
TTITLE7=Them Double Blues - John Mellencamp
TTITLE8=Body On Body - Jewel
TTITLE9=I'll Still Love You - Elvis Costello
TTITLE10=June's Sundown - Carlene Carter
TTITLE11=He Bore It All - Dailey And Vincent
TTITLE12=Chinky Pin Hill - I'm With Her
TTITLE13=Goin' Goin' Gone - Robert Glasper (Ft. Ro James and Anu Sun)
TTITLE14=What Would I Dreamer Do - The Jayhawks
TTITLE15=Spirit Rider - Jamey Johnson
EXTD=YEAR: 2018
EXTT0=
EXTT1=
EXTT2=
EXTT3=
EXTT4=
EXTT5=
EXTT6=
EXTT7=
EXTT8=
EXTT9=
EXTT10=
EXTT11=
EXTT12=
EXTT13=
EXTT14=
EXTT15=
PLAYORDER=
